PathFileType	4	(X/Y/Z)	/Users/mathieubourgeois/Desktop/Analyse/Traitement/Sujet_07/Transformed_Static_Sujet_07_Tpose.trc
DataRate	CameraRate	NumFrames	NumMarkers	Units	OrigDataRate	OrigDataStartFrame	OrigNumFrames
120.000000	120.000000	4	36	mm	120.000000	71	286
Frame#	Time	RFHD			LFHD			RBHD			LBHD			C7			CLAV			RSHO			LSHO			STRN			T10			RBWT			LBWT			RFWT			LFWT			RKNI			LKNI			RKNE			LKNE			LANI			RANI			LANE			RANE			LTOE			RTOE			LHEE			RHEE			RHUM			LHUM			RRAD			LRAD			RWRA			RWRB			LWRA			LWRB			LCAR			RCAR			
		X1	Y1	Z1	X2	Y2	Z2	X3	Y3	Z3	X4	Y4	Z4	X5	Y5	Z5	X6	Y6	Z6	X7	Y7	Z7	X8	Y8	Z8	X9	Y9	Z9	X10	Y10	Z10	X11	Y11	Z11	X12	Y12	Z12	X13	Y13	Z13	X14	Y14	Z14	X15	Y15	Z15	X16	Y16	Z16	X17	Y17	Z17	X18	Y18	Z18	X19	Y19	Z19	X20	Y20	Z20	X21	Y21	Z21	X22	Y22	Z22	X23	Y23	Z23	X24	Y24	Z24	X25	Y25	Z25	X26	Y26	Z26	X27	Y27	Z27	X28	Y28	Z28	X29	Y29	Z29	X30	Y30	Z30	X31	Y31	Z31	X32	Y32	Z32	X33	Y33	Z33	X34	Y34	Z34	X35	Y35	Z35	X36	Y36	Z36	

72	0.5916666666666667	-540.7139892578125	1761.583740234375	330.2100524902342	-407.5436096191407	1761.40625	342.604522705078	-541.4754638671875	1754.35009765625	175.7821044921873	-398.7481689453125	1753.072021484375	174.4940338134764	-468.3585815429688	1586.553100585938	149.6885528564452	-481.5654296875001	1533.776123046875	270.4557800292967	-622.5781860351562	1596.706665039062	175.8739318847655	-332.6287841796875	1598.439208984375	173.2358398437499	-479.1150207519532	1346.458618164062	310.0190429687499	-474.9833984375	1340.052490234375	97.58644866943345	-538.1932373046875	1099.6181640625	178.4119110107421	-423.2461547851562	1094.1611328125	175.3391113281249	-587.0462036132812	1063.894409179688	352.8205261230468	-371.6741027832032	1064.8984375	345.198028564453	-544.1517333984375	476.1848449707031	204.9502716064452	-440.9112854003906	476.5948486328125	171.5911865234374	-647.611083984375	532.893310546875	206.3675537109374	-334.6153869628906	518.5086669921875	183.7000427246093	-426.5901184082031	86.52293395996095	210.7655181884765	-541.2671508789062	89.83224487304689	203.5875091552734	-342.8050231933594	68.97148895263673	179.8037109375	-626.8594970703125	72.19360351562501	179.4676818847655	-350.5276794433594	29.50458717346194	397.2226867675781	-605.3419799804688	31.98009681701663	393.1572265624999	-390.5419006347656	50.24699020385743	132.9047241210937	-583.6152954101562	50.9955062866211	127.6620941162109	-940.3488159179688	1470.4541015625	220.4728240966795	-19.79318428039553	1442.203491210938	214.8755645751952	-944.6973266601562	1520.98583984375	176.7092590332029	-5.400427818298362	1498.044555664062	178.0286560058593	-1212.76123046875	1598.12548828125	217.3985137939451	-1218.959106445312	1531.470947265625	188.6461944580076	254.4425659179687	1549.082397460938	239.6839447021484	265.7648620605469	1476.396240234375	217.8073577880859	359.5088806152344	1532.56982421875	211.13232421875	-1321.565551757812	1577.678833007812	196.5545654296872	
73	0.6	-540.6935424804688	1761.640258789062	330.0952758789061	-407.5137939453126	1761.5078125	342.5138549804686	-541.4476928710938	1754.318481445312	175.6800231933592	-398.6981201171875	1753.058471679688	174.4039459228514	-468.2859191894531	1586.526123046875	149.6587829589842	-481.5180053710938	1533.80078125	270.4476928710936	-622.5064086914062	1596.723999023438	175.8590545654295	-332.5570373535156	1598.429443359375	173.2180175781249	-479.0650634765626	1346.4873046875	310.0602722167968	-474.9141845703125	1340.033935546875	97.61020660400376	-538.1635131835938	1099.632934570312	178.4364929199218	-423.2002258300781	1094.151733398438	175.3615570068358	-587.0211791992188	1063.907836914062	352.8321838378905	-371.6298217773438	1064.891479492188	345.2078552246093	-544.143798828125	476.1882629394531	204.9886169433593	-440.8950805664062	476.5870666503906	171.5996856689452	-647.5929565429688	532.8901977539062	206.4062957763671	-334.5871276855469	518.4994506835938	183.6747589111328	-426.5911560058594	86.53063964843751	210.7670440673828	-541.26171875	89.81311798095705	203.5969543457031	-342.794189453125	68.99686431884767	179.8379669189453	-626.8604125976562	72.19837951660158	179.4794464111327	-350.5280761718751	29.49713706970217	397.2264709472656	-605.3433837890625	31.9765434265137	393.1664428710937	-390.5334777832031	50.25609588623048	132.9022064208984	-583.591552734375	50.99914550781251	127.6721038818359	-940.2838134765625	1470.487182617188	220.4621276855467	-19.75065040588381	1442.158447265625	214.8855743408202	-944.6115112304688	1521.009521484375	176.7098236083982	-5.347865104675315	1498.002685546875	178.0367126464843	-1212.71875	1598.1162109375	217.3266448974607	-1218.889526367188	1531.4794921875	188.528625488281	254.5104370117187	1549.028930664062	239.6692657470703	265.8265686035156	1476.336547851562	217.8159179687499	359.5639343261719	1532.484619140625	211.1109924316406	-1321.512329101562	1577.655883789062	196.4542236328122	
74	0.6083333333333333	-540.644287109375	1761.69140625	329.9777832031248	-407.4918518066407	1761.58349609375	342.431182861328	-541.4016723632812	1754.286499023438	175.578399658203	-398.6706848144531	1753.033569335938	174.3068695068358	-468.2321472167969	1586.51513671875	149.6306304931639	-481.4584655761719	1533.821899414062	270.4301757812498	-622.43017578125	1596.732666015625	175.8239898681639	-332.487060546875	1598.425048828125	173.2097930908202	-479.0120849609376	1346.494140625	310.0825195312499	-474.865234375	1340.03076171875	97.61589813232408	-538.1189575195312	1099.64013671875	178.4674377441405	-423.1909484863281	1094.156860351562	175.3857879638671	-586.976806640625	1063.909912109375	352.840118408203	-371.6014099121094	1064.897338867188	345.2258300781249	-544.1345825195312	476.1943054199219	205.0327911376952	-440.8735961914062	476.5848083496094	171.6085662841796	-647.56982421875	532.8948974609375	206.444854736328	-334.5728149414062	518.4999389648438	183.7074584960937	-426.6080932617188	86.50818634033205	210.7757873535156	-541.2575073242188	89.81546020507814	203.5965270996093	-342.7984008789062	68.99752044677736	179.8390197753906	-626.8587646484375	72.20431518554689	179.4801177978515	-350.5225219726563	29.50536346435549	397.2364196777343	-605.341064453125	31.977502822876	393.1632995605468	-390.5333862304688	50.24517059326173	132.9049530029296	-583.5951538085938	51.00139617919923	127.6826095581054	-940.2306518554688	1470.513305664062	220.4481201171873	-19.68314743041995	1442.11572265625	214.889434814453	-944.5681762695312	1521.018798828125	176.7046508789061	-5.293024539947532	1497.972045898438	178.0351409912109	-1212.669311523438	1598.096313476562	217.2594146728513	-1218.831420898438	1531.473876953125	188.4272155761716	254.5809173583984	1548.965209960938	239.6629333496093	265.8755493164062	1476.251953125	217.8027038574218	359.640869140625	1532.369140625	211.1225280761718	-1321.462768554688	1577.636108398438	196.3549499511716	
75	0.6166666666666667	-540.6166381835938	1761.7490234375	329.8782653808592	-407.4595031738282	1761.654418945312	342.3574829101561	-541.3629150390625	1754.267822265625	175.4678955078123	-398.6278991699219	1753.000732421875	174.2433471679686	-468.1610717773438	1586.496826171875	149.6096191406249	-481.4248657226563	1533.834350585938	270.4130554199217	-622.3809814453125	1596.735229492188	175.7869873046873	-332.4292297363281	1598.4140625	173.2026824951171	-478.9869995117188	1346.526733398438	310.0990600585936	-474.8035888671875	1340.016845703125	97.63671112060533	-538.096923828125	1099.627807617188	178.4744720458983	-423.1483764648438	1094.146850585938	175.4054718017577	-586.9277954101562	1063.923461914062	352.863800048828	-371.5574951171876	1064.883056640625	345.2246704101561	-544.1114501953125	476.1944580078125	205.0443267822265	-440.8538513183594	476.5838623046875	171.6048431396484	-647.555419921875	532.9008178710938	206.4734497070311	-334.5477905273438	518.4945068359375	183.7225189208984	-426.5941467285156	86.52642059326173	210.7596435546874	-541.2608032226562	89.83499145507814	203.6138916015624	-342.7819213867188	68.99755096435548	179.8316040039062	-626.8656616210938	72.20961761474611	179.4758300781249	-350.5233459472657	29.51018333435061	397.2329406738281	-605.3427734375	31.974084854126	393.1682739257812	-390.53857421875	50.25144195556641	132.9039764404296	-583.5697021484375	50.99611282348634	127.6750488281249	-940.1884765625	1470.528686523438	220.4431457519529	-19.63498687744143	1442.069091796875	214.9161834716796	-944.5357666015625	1521.024536132812	176.6788635253904	-5.244948863983177	1497.915283203125	178.0532226562499	-1212.636108398438	1598.088256835938	217.1949615478513	-1218.772705078125	1531.459106445312	188.336242675781	254.6512603759765	1548.876831054688	239.6710052490234	265.9373474121094	1476.159545898438	217.7892303466796	359.7221069335938	1532.26171875	211.1470489501953	-1321.4111328125	1577.621948242188	196.2624053955076	
